<svg width="24" height="22" viewBox="0 0 24 22" fill="none" xmlns="http://www.w3.org/2000/svg">
<path d="M15.5 1.66663L22.5 3.99996V9.83329H19V19.1666C19 19.476 18.8771 19.7728 18.6583 19.9916C18.4395 20.2104 18.1428 20.3333 17.8333 20.3333H6.16667C5.85725 20.3333 5.5605 20.2104 5.34171 19.9916C5.12292 19.7728 5 19.476 5 19.1666V9.83329H1.5V3.99996L8.5 1.66663C8.5 2.59488 8.86875 3.48512 9.52513 4.1415C10.1815 4.79788 11.0717 5.16663 12 5.16663C12.9283 5.16663 13.8185 4.79788 14.4749 4.1415C15.1313 3.48512 15.5 2.59488 15.5 1.66663Z" stroke="#826555" stroke-width="2" stroke-linecap="round" stroke-linejoin="round"/>
</svg> 