<svg width="28" height="28" viewBox="0 0 28 28" fill="none" xmlns="http://www.w3.org/2000/svg">
    <path d="M19.6584 11.2584V19.6584M19.6584 19.6584V23.3334H6.00837V19.6584M19.6584 19.6584H23.3334V5.48337L15.9834 2.33337H9.68337L2.33337 5.48337V19.6584H6.00837M6.00837 19.6584V11.2584" stroke="#826555" stroke-width="2" stroke-linecap="round" stroke-linejoin="round"/>
    <path d="M15.9833 2.33337L12.8333 9.68337M12.8333 9.68337L9.68335 2.33337M12.8333 9.68337V19.6584V23.3334" stroke="#826555" stroke-width="2" stroke-linecap="round" stroke-linejoin="round"/>
    <path d="M15.9834 2.33337L12.8334 9.68337" stroke="#826555" stroke-width="2" stroke-linecap="round" stroke-linejoin="round"/>
    <path d="M12.8333 9.68337L9.68335 2.33337" stroke="#826555" stroke-width="2" stroke-linecap="round" stroke-linejoin="round"/>
    <path d="M9.68337 2.33337L7.58337 6.53337L9.68337 9.42087L8.63337 12.3084L12.8334 19.6584" stroke="#826555" stroke-width="2" stroke-linecap="round" stroke-linejoin="round"/>
    <path d="M15.9834 2.33337L18.6084 6.53337L15.9834 9.42087L17.0334 12.3084L12.8334 19.6584" stroke="#826555" stroke-width="2" stroke-linecap="round" stroke-linejoin="round"/>
</svg>
